<?xml version="1.0" encoding="UTF-8"?>
<svg xmlns="http://www.w3.org/2000/svg" xmlns:xlink="http://www.w3.org/1999/xlink" width="240px" height="240px" viewBox="0 0 240 240" version="1.1">
<g id="surface1">
<path style=" stroke:none;fill-rule:nonzero;fill:rgb(80.784315%,56.470591%,34.509805%);fill-opacity:1;" d="M 217.5 97.265625 L 218.203125 97.382812 L 220.195312 98.789062 L 224.414062 101.835938 L 226.640625 103.476562 L 235.078125 109.570312 L 237.304688 111.210938 L 239.414062 112.734375 L 239.648438 113.4375 L 239.296875 114.140625 L 239.0625 114.257812 L 196.40625 114.257812 L 195.9375 113.671875 L 195.9375 112.96875 L 196.523438 112.382812 L 200.742188 109.335938 L 202.96875 107.695312 L 204.609375 106.523438 L 206.71875 105 L 208.945312 103.359375 L 210.585938 102.1875 L 212.695312 100.664062 L 214.921875 99.023438 L 217.03125 97.5 Z M 217.5 99.492188 L 215.625 100.898438 L 213.984375 102.070312 L 209.765625 105.117188 L 207.539062 106.757812 L 201.210938 111.328125 L 199.921875 112.265625 L 199.921875 112.382812 L 235.546875 112.382812 L 235.078125 111.914062 L 228.75 107.34375 L 226.523438 105.703125 L 220.195312 101.132812 L 217.96875 99.492188 Z M 217.5 99.492188 "/>
<path style=" stroke:none;fill-rule:nonzero;fill:rgb(80.784315%,56.470591%,34.509805%);fill-opacity:1;" d="M 196.640625 136.992188 L 238.710938 136.992188 L 239.296875 137.34375 L 239.53125 137.695312 L 239.53125 142.03125 L 239.0625 142.617188 L 238.710938 142.734375 L 196.757812 142.734375 L 196.171875 142.382812 L 195.9375 142.03125 L 195.9375 137.695312 L 196.40625 137.109375 Z M 197.929688 138.867188 L 197.8125 138.984375 L 197.8125 140.742188 L 197.929688 140.859375 L 237.539062 140.859375 L 237.65625 140.742188 L 237.65625 138.984375 L 237.539062 138.867188 Z M 197.929688 138.867188 "/>
<path style=" stroke:none;fill-rule:nonzero;fill:rgb(80.784315%,56.470591%,34.509805%);fill-opacity:1;" d="M 211.640625 116.015625 L 213.984375 116.015625 L 215.976562 116.367188 L 217.265625 116.835938 L 217.96875 116.953125 L 219.375 116.367188 L 221.484375 116.015625 L 223.828125 116.015625 L 225.820312 116.367188 L 227.34375 116.953125 L 228.046875 117.539062 L 228.164062 117.773438 L 228.164062 134.414062 L 227.695312 135 L 226.992188 135.117188 L 225.585938 134.414062 L 224.296875 134.0625 L 223.476562 133.945312 L 221.367188 133.945312 L 219.726562 134.296875 L 218.671875 134.765625 L 218.203125 135.117188 L 217.265625 135.117188 L 216.679688 134.648438 L 214.804688 134.0625 L 213.984375 133.945312 L 211.875 133.945312 L 210.117188 134.296875 L 208.476562 135.117188 L 207.773438 135 L 207.304688 134.414062 L 207.304688 117.773438 L 207.773438 117.1875 L 209.179688 116.484375 L 210.703125 116.132812 Z M 211.757812 117.890625 L 209.882812 118.242188 L 209.179688 118.59375 L 209.179688 132.539062 L 210.820312 132.1875 L 211.757812 132.070312 L 214.21875 132.070312 L 216.09375 132.421875 L 217.617188 133.007812 L 218.671875 132.65625 L 220.429688 132.1875 L 221.25 132.070312 L 223.710938 132.070312 L 225.585938 132.421875 L 226.289062 132.539062 L 226.289062 118.59375 L 225.585938 118.242188 L 223.59375 117.890625 L 221.601562 117.890625 L 219.726562 118.242188 L 218.671875 118.710938 L 218.554688 127.851562 L 218.203125 128.320312 L 217.617188 128.4375 L 217.03125 128.085938 L 216.914062 127.851562 L 216.796875 118.710938 L 215.742188 118.242188 L 214.6875 118.007812 L 213.632812 117.890625 Z M 211.757812 117.890625 "/>
<path style=" stroke:none;fill-rule:nonzero;fill:rgb(55.686277%,30.19608%,13.725491%);fill-opacity:1;" d="M 186.328125 103.476562 L 187.03125 103.476562 L 187.617188 103.945312 L 188.085938 104.882812 L 188.203125 105.703125 L 188.203125 134.0625 L 187.96875 135.46875 L 187.382812 136.289062 L 186.914062 136.523438 L 186.09375 136.40625 L 185.507812 135.703125 L 185.15625 134.53125 L 185.15625 105.46875 L 185.507812 104.296875 L 186.09375 103.59375 Z M 186.328125 103.476562 "/>
<path style=" stroke:none;fill-rule:nonzero;fill:rgb(80.784315%,56.470591%,34.509805%);fill-opacity:1;" d="M 230.625 116.25 L 237.070312 116.25 L 237.539062 116.71875 L 237.65625 116.953125 L 237.65625 134.296875 L 237.304688 134.882812 L 237.070312 135.117188 L 230.625 135.117188 L 230.039062 134.53125 L 230.039062 116.835938 Z M 231.914062 118.125 L 231.914062 133.242188 L 235.664062 133.242188 L 235.664062 118.125 Z M 231.914062 118.125 "/>
<path style=" stroke:none;fill-rule:nonzero;fill:rgb(80.784315%,56.470591%,34.509805%);fill-opacity:1;" d="M 198.398438 116.25 L 204.84375 116.25 L 205.429688 116.835938 L 205.429688 134.53125 L 204.84375 135.117188 L 198.398438 135.117188 L 197.929688 134.648438 L 197.8125 134.296875 L 197.8125 116.953125 L 198.164062 116.367188 Z M 199.804688 118.125 L 199.6875 133.125 L 199.804688 133.242188 L 203.554688 133.242188 L 203.554688 118.125 Z M 199.804688 118.125 "/>
<path style=" stroke:none;fill-rule:nonzero;fill:rgb(80.784315%,56.470591%,34.509805%);fill-opacity:1;" d="M 115.664062 103.59375 L 116.367188 103.59375 L 116.484375 111.328125 L 117.1875 110.390625 L 118.125 109.6875 L 118.945312 109.335938 L 119.53125 109.21875 L 122.578125 109.21875 L 124.101562 109.6875 L 125.039062 110.390625 L 125.507812 110.976562 L 125.976562 112.03125 L 126.210938 113.320312 L 126.210938 127.5 L 125.859375 129.140625 L 125.390625 130.078125 L 124.570312 130.898438 L 123.632812 131.367188 L 122.578125 131.601562 L 119.414062 131.601562 L 118.242188 131.25 L 117.1875 130.546875 L 116.484375 129.609375 L 116.367188 131.25 L 116.25 131.367188 L 115.664062 131.367188 Z M 119.648438 109.921875 L 118.359375 110.390625 L 117.421875 111.210938 L 116.835938 112.382812 L 116.484375 113.554688 L 116.367188 114.609375 L 116.367188 126.210938 L 116.601562 128.320312 L 117.070312 129.375 L 117.890625 130.3125 L 118.945312 130.78125 L 119.414062 130.898438 L 122.460938 130.898438 L 123.75 130.429688 L 124.6875 129.609375 L 125.273438 128.4375 L 125.507812 127.03125 L 125.507812 113.554688 L 125.15625 112.03125 L 124.570312 111.09375 L 123.75 110.390625 L 122.460938 109.921875 Z M 119.648438 109.921875 "/>
<path style=" stroke:none;fill-rule:nonzero;fill:rgb(80.784315%,56.470591%,34.509805%);fill-opacity:1;" d="M 145.78125 109.21875 L 148.242188 109.21875 L 149.648438 109.453125 L 150.585938 109.921875 L 151.171875 110.390625 L 151.640625 111.210938 L 151.875 112.5 L 151.875 131.367188 L 151.289062 131.367188 L 151.171875 131.25 L 151.171875 128.4375 L 150.46875 129.609375 L 149.53125 130.546875 L 148.125 131.25 L 147.1875 131.484375 L 144.960938 131.484375 L 143.4375 131.015625 L 142.5 130.3125 L 141.796875 129.375 L 141.445312 128.203125 L 141.328125 127.382812 L 141.328125 124.21875 L 141.679688 122.929688 L 142.382812 121.757812 L 143.085938 120.9375 L 144.492188 119.882812 L 146.367188 118.828125 L 148.007812 117.890625 L 149.53125 116.835938 L 150.234375 116.25 L 150.820312 115.3125 L 151.054688 114.492188 L 151.054688 112.148438 L 150.703125 111.210938 L 150.117188 110.625 L 148.945312 110.15625 L 148.242188 110.039062 L 145.78125 110.039062 L 144.492188 110.390625 L 143.789062 110.859375 L 143.203125 111.5625 L 142.851562 112.5 L 142.617188 114.023438 L 142.5 116.601562 L 141.796875 116.601562 L 141.796875 114.023438 L 142.03125 112.382812 L 142.617188 110.976562 L 143.203125 110.15625 L 144.609375 109.453125 Z M 151.054688 116.367188 L 150.351562 117.1875 L 148.59375 118.359375 L 145.546875 120.117188 L 144.140625 121.054688 L 143.085938 121.992188 L 142.382812 123.164062 L 142.03125 124.570312 L 142.03125 127.382812 L 142.265625 128.554688 L 142.851562 129.726562 L 143.789062 130.429688 L 145.078125 130.78125 L 147.421875 130.78125 L 148.710938 130.3125 L 149.414062 129.84375 L 150.234375 128.90625 L 150.820312 127.5 L 151.171875 125.742188 L 151.171875 116.367188 Z M 151.054688 116.367188 "/>
<path style=" stroke:none;fill-rule:nonzero;fill:rgb(56.470591%,30.980393%,14.509805%);fill-opacity:1;" d="M 5.507812 105.117188 L 7.617188 105.117188 L 9.140625 105.46875 L 10.429688 106.171875 L 11.484375 107.226562 L 12.070312 108.398438 L 12.304688 109.453125 L 12.304688 112.382812 L 11.601562 112.382812 L 11.484375 109.570312 L 11.015625 108.164062 L 10.3125 107.226562 L 9.609375 106.640625 L 8.671875 106.171875 L 7.617188 105.9375 L 5.625 105.9375 L 4.570312 106.171875 L 3.632812 106.640625 L 3.046875 107.226562 L 2.460938 108.164062 L 1.992188 109.453125 L 1.757812 110.859375 L 1.757812 112.382812 L 2.109375 114.140625 L 2.8125 115.3125 L 3.398438 115.898438 L 4.453125 116.601562 L 6.914062 117.773438 L 9.023438 118.710938 L 10.429688 119.53125 L 11.484375 120.46875 L 12.304688 122.109375 L 12.539062 123.398438 L 12.539062 126.445312 L 12.070312 128.320312 L 11.484375 129.492188 L 10.546875 130.546875 L 9.609375 131.132812 L 8.203125 131.601562 L 7.617188 131.71875 L 5.273438 131.71875 L 3.75 131.25 L 2.695312 130.546875 L 1.992188 129.726562 L 1.40625 128.554688 L 0.9375 126.679688 L 0.820312 125.507812 L 0.820312 123.632812 L 1.523438 123.632812 L 1.757812 126.5625 L 2.226562 128.320312 L 2.929688 129.492188 L 3.984375 130.429688 L 5.390625 130.898438 L 7.617188 130.898438 L 9.140625 130.429688 L 10.195312 129.726562 L 11.015625 128.789062 L 11.484375 127.617188 L 11.71875 126.445312 L 11.71875 123.515625 L 11.367188 122.109375 L 10.898438 121.171875 L 10.195312 120.351562 L 8.90625 119.53125 L 6.796875 118.59375 L 4.570312 117.65625 L 2.929688 116.601562 L 1.992188 115.664062 L 1.289062 114.257812 L 0.9375 112.382812 L 0.9375 110.742188 L 1.289062 108.75 L 1.757812 107.578125 L 2.695312 106.289062 L 3.75 105.585938 L 4.804688 105.234375 Z M 5.507812 105.117188 "/>
<path style=" stroke:none;fill-rule:nonzero;fill:rgb(54.509807%,29.019609%,12.941177%);fill-opacity:1;" d="M 17.34375 103.59375 L 18.046875 103.59375 L 18.164062 111.445312 L 18.984375 110.390625 L 20.15625 109.570312 L 21.445312 109.21875 L 24.375 109.21875 L 25.664062 109.570312 L 26.835938 110.273438 L 27.539062 111.210938 L 28.007812 112.734375 L 28.125 113.90625 L 28.125 131.367188 L 27.421875 131.367188 L 27.304688 114.257812 L 27.070312 112.5 L 26.601562 111.445312 L 25.898438 110.625 L 24.84375 110.15625 L 24.257812 110.039062 L 21.445312 110.039062 L 20.15625 110.507812 L 19.335938 111.09375 L 18.632812 112.148438 L 18.164062 113.671875 L 18.046875 131.367188 L 17.34375 131.367188 Z M 17.34375 103.59375 "/>
<path style=" stroke:none;fill-rule:nonzero;fill:rgb(56.078434%,30.980393%,14.117648%);fill-opacity:1;" d="M 47.34375 109.21875 L 50.507812 109.21875 L 52.03125 109.6875 L 52.96875 110.390625 L 53.671875 111.328125 L 54.023438 112.382812 L 54.257812 113.789062 L 54.257812 127.148438 L 53.90625 128.90625 L 53.4375 129.84375 L 52.851562 130.546875 L 52.03125 131.132812 L 50.976562 131.484375 L 50.390625 131.601562 L 47.226562 131.601562 L 45.9375 131.25 L 44.765625 130.546875 L 44.0625 129.492188 L 43.710938 128.554688 L 43.476562 126.679688 L 43.476562 114.140625 L 43.710938 112.265625 L 44.179688 111.09375 L 45.117188 110.039062 L 46.289062 109.453125 Z M 47.460938 109.921875 L 46.289062 110.273438 L 45.234375 110.976562 L 44.648438 111.796875 L 44.296875 112.96875 L 44.179688 114.140625 L 44.179688 126.679688 L 44.414062 128.4375 L 45 129.609375 L 45.9375 130.429688 L 46.757812 130.78125 L 47.34375 130.898438 L 50.390625 130.898438 L 51.796875 130.429688 L 52.617188 129.726562 L 53.203125 128.671875 L 53.554688 127.03125 L 53.554688 113.789062 L 53.320312 112.382812 L 52.734375 111.210938 L 51.796875 110.390625 L 50.976562 110.039062 L 50.390625 109.921875 Z M 47.460938 109.921875 "/>
<path style=" stroke:none;fill-rule:nonzero;fill:rgb(54.901963%,29.803923%,13.333334%);fill-opacity:1;" d="M 76.640625 103.59375 L 77.34375 103.59375 L 77.460938 118.242188 L 78.515625 118.242188 L 79.21875 118.007812 L 80.390625 116.25 L 82.96875 112.5 L 84.84375 109.804688 L 84.960938 109.570312 L 85.898438 109.570312 L 85.078125 110.859375 L 83.671875 112.851562 L 81.914062 115.429688 L 80.039062 118.125 L 79.804688 118.476562 L 79.921875 119.179688 L 82.265625 123.75 L 83.4375 125.976562 L 85.429688 129.84375 L 86.132812 131.132812 L 86.132812 131.367188 L 85.429688 131.367188 L 84.023438 128.789062 L 81.679688 124.21875 L 80.507812 121.992188 L 78.984375 119.0625 L 77.34375 118.945312 L 77.34375 131.367188 L 76.640625 131.367188 Z M 76.640625 103.59375 "/>
<path style=" stroke:none;fill-rule:nonzero;fill:rgb(56.470591%,30.980393%,14.117648%);fill-opacity:1;" d="M 59.882812 109.570312 L 60.585938 109.570312 L 60.703125 126.796875 L 60.9375 128.4375 L 61.523438 129.609375 L 62.109375 130.195312 L 63.046875 130.664062 L 64.21875 130.898438 L 65.976562 130.898438 L 67.5 130.546875 L 68.554688 129.84375 L 69.375 128.671875 L 69.726562 127.617188 L 69.84375 126.914062 L 69.960938 109.570312 L 70.664062 109.570312 L 70.664062 131.367188 L 70.078125 131.367188 L 69.960938 131.132812 L 69.84375 129.375 L 69.140625 130.3125 L 68.320312 131.015625 L 67.265625 131.484375 L 65.976562 131.71875 L 64.21875 131.71875 L 62.8125 131.484375 L 61.40625 130.78125 L 60.585938 129.84375 L 60.117188 128.671875 L 59.882812 127.265625 Z M 59.882812 109.570312 "/>
<path style=" stroke:none;fill-rule:nonzero;fill:rgb(80.784315%,56.470591%,34.509805%);fill-opacity:1;" d="M 165.585938 109.570312 L 166.289062 109.570312 L 166.757812 111.328125 L 169.6875 123.398438 L 171.210938 129.726562 L 171.5625 128.671875 L 174.375 117.1875 L 176.132812 109.921875 L 176.25 109.570312 L 176.953125 109.570312 L 176.71875 110.859375 L 174.023438 121.875 L 171.679688 131.484375 L 170.976562 133.59375 L 170.15625 135 L 169.335938 135.820312 L 168.398438 136.289062 L 167.8125 136.40625 L 165.9375 136.40625 L 164.882812 136.171875 L 164.882812 135.585938 L 166.171875 135.703125 L 167.578125 135.703125 L 168.75 135.234375 L 169.21875 134.882812 L 169.453125 134.882812 L 169.6875 134.414062 L 170.273438 133.59375 L 170.742188 132.070312 L 170.742188 131.132812 L 167.929688 119.53125 L 165.585938 109.804688 Z M 165.585938 109.570312 "/>
<path style=" stroke:none;fill-rule:nonzero;fill:rgb(80.784315%,56.470591%,34.509805%);fill-opacity:1;" d="M 96.445312 105.234375 L 97.148438 105.351562 L 97.148438 130.546875 L 105.820312 130.664062 L 105.820312 131.367188 L 96.445312 131.367188 L 96.328125 131.25 L 96.328125 105.351562 Z M 96.445312 105.234375 "/>
<path style=" stroke:none;fill-rule:nonzero;fill:rgb(57.647061%,32.549021%,15.686275%);fill-opacity:1;" d="M 37.851562 109.21875 L 40.898438 109.21875 L 40.898438 109.921875 L 37.96875 110.039062 L 36.5625 110.507812 L 35.390625 111.5625 L 34.804688 112.734375 L 34.570312 114.257812 L 34.453125 131.367188 L 33.867188 131.367188 L 33.75 131.25 L 33.75 109.570312 L 34.453125 109.570312 L 34.453125 111.5625 L 34.6875 111.5625 L 34.921875 110.976562 L 35.859375 110.039062 L 36.914062 109.453125 Z M 37.851562 109.21875 "/>
<path style=" stroke:none;fill-rule:nonzero;fill:rgb(80.784315%,56.470591%,34.509805%);fill-opacity:1;" d="M 135.9375 109.21875 L 138.867188 109.21875 L 138.984375 109.335938 L 138.984375 109.921875 L 136.054688 110.039062 L 134.648438 110.507812 L 133.710938 111.210938 L 133.007812 112.382812 L 132.65625 113.554688 L 132.539062 131.367188 L 131.835938 131.367188 L 131.835938 109.570312 L 132.539062 109.570312 L 132.65625 111.445312 L 133.476562 110.390625 L 134.53125 109.6875 L 135.351562 109.335938 Z M 135.9375 109.21875 "/>
<path style=" stroke:none;fill-rule:nonzero;fill:rgb(80.784315%,56.470591%,34.509805%);fill-opacity:1;" d="M 161.71875 109.21875 L 164.648438 109.21875 L 164.765625 109.335938 L 164.765625 109.921875 L 161.71875 110.039062 L 160.429688 110.507812 L 159.726562 110.976562 L 159.023438 111.796875 L 158.4375 113.203125 L 158.320312 131.367188 L 157.617188 131.367188 L 157.617188 109.570312 L 158.203125 109.570312 L 158.320312 111.09375 L 158.4375 111.328125 L 159.492188 110.15625 L 160.429688 109.570312 Z M 161.71875 109.21875 "/>
<path style=" stroke:none;fill-rule:nonzero;fill:rgb(80.784315%,56.470591%,34.509805%);fill-opacity:1;" d="M 108.984375 109.570312 L 109.6875 109.570312 L 109.6875 131.367188 L 108.984375 131.367188 Z M 108.984375 109.570312 "/>
<path style=" stroke:none;fill-rule:nonzero;fill:rgb(80.784315%,56.470591%,34.509805%);fill-opacity:1;" d="M 109.101562 105.117188 L 109.804688 105.234375 L 109.921875 105.351562 L 109.921875 106.171875 L 109.570312 106.40625 L 108.867188 106.289062 L 108.75 105.46875 Z M 109.101562 105.117188 "/>
</g>
</svg>
